M48
; DRILL file {KiCad 9.0.4} date 2026-04-04T22:37:26-0500
; FORMAT={-:-/ absolute / metric / decimal}
; #@! TF.CreationDate,2026-04-04T22:37:26-05:00
; #@! TF.GenerationSoftware,Kicad,Pcbnew,9.0.4
; #@! TF.FileFunction,Plated,1,2,PTH
FMAT,2
METRIC
; #@! TA.AperFunction,Plated,PTH,ViaDrill
T1C0.400
; #@! TA.AperFunction,Plated,PTH,ComponentDrill
T2C0.700
; #@! TA.AperFunction,Plated,PTH,ComponentDrill
T3C0.800
; #@! TA.AperFunction,Plated,PTH,ComponentDrill
T4C0.890
; #@! TA.AperFunction,Plated,PTH,ComponentDrill
T5C0.900
; #@! TA.AperFunction,Plated,PTH,ComponentDrill
T6C1.000
; #@! TA.AperFunction,Plated,PTH,ComponentDrill
T7C1.016
; #@! TA.AperFunction,Plated,PTH,ComponentDrill
T8C1.100
; #@! TA.AperFunction,Plated,PTH,ComponentDrill
T9C1.200
; #@! TA.AperFunction,Plated,PTH,ComponentDrill
T10C1.270
; #@! TA.AperFunction,Plated,PTH,ComponentDrill
T11C1.397
; #@! TA.AperFunction,Plated,PTH,ComponentDrill
T12C3.175
%
G90
G05
T1
X87.0Y-72.0
X87.0Y-89.0
X90.0Y-48.0
X92.5Y-103.5
X96.0Y-58.0
X101.0Y-48.5
X101.5Y-97.5
X105.0Y-107.5
X106.5Y-64.5
X107.0Y-99.5
X110.5Y-55.5
X112.0Y-93.5
X112.5Y-73.5
X112.5Y-79.0
X114.5Y-64.5
X115.5Y-74.5
X117.0Y-114.0
X118.0Y-76.0
X118.0Y-95.0
X118.0Y-117.0
X119.35Y-78.5
X119.5Y-71.0
X120.0Y-48.5
X122.0Y-46.0
X122.5Y-91.35
X123.0Y-67.5
X123.5Y-71.0
X125.5Y-66.0
X127.5Y-65.3
X127.5Y-75.0
X131.5Y-67.0
X133.0Y-106.0
X134.0Y-77.0
X142.55Y-110.5
T2
X62.865Y-82.55
X62.88Y-85.0
X62.88Y-87.5
X62.88Y-90.0
X67.19Y-80.01
X70.485Y-82.55
X70.5Y-85.0
X70.5Y-87.5
X70.5Y-90.0
X72.88Y-82.55
X72.88Y-85.0
X72.88Y-87.63
X72.88Y-90.17
X74.81Y-80.01
X77.0Y-72.39
X77.0Y-80.01
X80.5Y-82.55
X80.5Y-85.0
X80.5Y-87.63
X80.5Y-90.17
X121.0Y-108.5
X121.0Y-116.12
X125.0Y-108.5
X125.0Y-116.12
X129.0Y-108.5
X129.0Y-116.12
X132.5Y-108.5
X132.5Y-116.12
X137.5Y-55.5
X137.5Y-63.12
X146.0Y-55.5
X146.0Y-63.12
X155.0Y-55.5
X155.0Y-63.12
T3
X66.92Y-75.5
X69.38Y-61.605
X69.38Y-64.145
X69.38Y-66.685
X69.38Y-69.225
X72.0Y-75.5
X77.0Y-61.605
X77.0Y-64.145
X77.0Y-66.685
X77.0Y-69.225
X135.8Y-80.0
X135.8Y-87.62
X138.34Y-80.0
X138.34Y-87.62
X140.88Y-80.0
X140.88Y-87.62
X143.42Y-80.0
X143.42Y-87.62
X145.96Y-80.0
X145.96Y-87.62
X148.5Y-80.0
X148.5Y-87.62
X151.04Y-80.0
X151.04Y-87.62
X153.58Y-80.0
X153.58Y-87.62
T4
X104.14Y-59.32
X104.14Y-61.86
X104.14Y-102.5
X104.14Y-105.04
X106.68Y-59.32
X106.68Y-61.86
X106.68Y-102.5
X106.68Y-105.04
X109.22Y-59.32
X109.22Y-61.86
X109.22Y-102.5
X109.22Y-105.04
X111.76Y-59.32
X111.76Y-61.86
X111.76Y-102.5
X111.76Y-105.04
X114.3Y-59.32
X114.3Y-61.86
X114.3Y-102.5
X114.3Y-105.04
X116.84Y-59.32
X116.84Y-61.86
X116.84Y-102.5
X116.84Y-105.04
X119.38Y-59.32
X119.38Y-61.86
X119.38Y-102.5
X119.38Y-105.04
X121.92Y-59.32
X121.92Y-61.86
X121.92Y-102.5
X121.92Y-105.04
X124.46Y-59.32
X124.46Y-61.86
X124.46Y-102.5
X124.46Y-105.04
X127.0Y-59.32
X127.0Y-61.86
X127.0Y-102.5
X127.0Y-105.04
T5
X134.96Y-48.0
X137.5Y-48.0
X143.96Y-48.0
X146.5Y-48.0
X151.96Y-48.0
X154.5Y-48.0
T6
X56.51Y-57.0
X59.05Y-57.0
X75.46Y-50.5
X78.0Y-50.5
X80.54Y-50.5
X81.5Y-71.445
X81.5Y-73.985
X81.5Y-76.525
X136.365Y-120.735
X136.365Y-123.275
X141.5Y-120.735
X141.5Y-123.275
X147.0Y-120.735
X147.0Y-123.275
X152.0Y-120.735
X152.0Y-123.275
T7
X60.292Y-105.73
X60.292Y-108.27
X60.292Y-110.81
X67.278Y-95.57
X67.278Y-100.65
X67.912Y-118.43
X70.453Y-118.43
X72.992Y-118.43
X73.627Y-95.57
X73.627Y-100.65
X88.45Y-43.87
X90.99Y-43.87
X93.53Y-43.87
X96.07Y-43.87
X98.61Y-43.87
X101.15Y-43.87
X103.69Y-43.87
X106.23Y-43.87
X108.77Y-43.87
X111.31Y-43.87
X113.85Y-43.87
X116.39Y-43.87
X118.93Y-43.87
X121.47Y-43.87
X124.01Y-43.87
X126.55Y-43.87
T8
X136.25Y-102.0
X136.25Y-106.5
X142.75Y-102.0
X142.75Y-106.5
X145.25Y-93.5
X145.25Y-98.0
X145.25Y-110.5
X145.25Y-115.0
X151.75Y-93.5
X151.75Y-98.0
X151.75Y-110.5
X151.75Y-115.0
X153.25Y-102.0
X153.25Y-106.5
X159.75Y-102.0
X159.75Y-106.5
T9
X82.9Y-121.45
X115.9Y-117.95
X115.9Y-121.45
T10
X58.92Y-70.5
X63.0Y-59.92
X63.0Y-65.0
X64.0Y-70.5
T11
X62.832Y-101.602
X62.832Y-114.938
X78.072Y-101.602
X78.072Y-114.938
T12
X54.61Y-41.91
X54.61Y-123.19
X161.29Y-41.91
X161.29Y-123.19
M30
